<?xml version="1.0" encoding="utf-8"?>
<!-- Generator: Adobe Illustrator 17.0.0, SVG Export Plug-In . SVG Version: 6.00 Build 0)  -->
<!DOCTYPE svg PUBLIC "-//W3C//DTD SVG 1.1//EN" "http://www.w3.org/Graphics/SVG/1.1/DTD/svg11.dtd">
<svg version="1.1" id="图层_1" xmlns="http://www.w3.org/2000/svg" xmlns:xlink="http://www.w3.org/1999/xlink" x="0px" y="0px"
	 width="612px" height="792px" viewBox="0 0 612 792" enable-background="new 0 0 612 792" xml:space="preserve">
<g>
	<rect x="245.565" y="519.165" fill="#B0C1D4" width="120.87" height="104.805"/>
	<path fill="#66798F" d="M362.61,522.99v96.39H250.155v-96.39H362.61 M371.025,515.34H241.74v113.22h129.285V515.34L371.025,515.34z
		"/>
</g>
<g>
	<rect x="3.825" y="132.075" fill="#F7FAFC" width="604.35" height="427.635"/>
	<g>
		<path fill="#66798F" d="M604.35,136.665v419.22H7.65v-419.22H604.35 M612.765,128.25H0v435.285h612.765V128.25L612.765,128.25z"/>
	</g>
</g>
<rect x="7.65" y="499.275" fill="#66798F" width="597.465" height="56.61"/>
<g>
	<path fill="#B0C1D4" d="M133.11,656.1c2.295-22.95,21.42-40.545,44.37-40.545h257.805c22.95,0,42.075,17.595,44.37,40.545H133.11z"
		/>
	<path fill="#66798F" d="M281.52,620.145h153.765 M435.285,620.145c19.125,0,35.955,13.77,39.78,32.13H137.7
		c3.825-18.36,19.89-32.13,39.78-32.13h104.04 M435.285,611.73H177.48c-26.775,0-48.195,21.42-48.195,48.195l0,0h354.96l0,0
		C483.48,633.915,462.06,611.73,435.285,611.73L435.285,611.73z"/>
</g>
<rect x="532.44" y="522.99" fill="#FFEEA3" width="48.195" height="16.065"/>
<g>
	<polygon fill="none" points="282.416,335.396 292.458,335.396 292.458,332.702 284.528,332.702 	"/>
	<path fill="none" d="M352.491,303.135l-25.728,12.471l54.319,0l-25.846-12.473C354.364,302.712,353.361,302.713,352.491,303.135z"
		/>
	<polygon fill="none" points="291.361,323.987 289.054,326.929 303.934,326.929 302.062,323.987 	"/>
	<path fill="none" d="M191.697,327.485c0,2.394-1.277,4.642-3.332,5.868l-41.166,24.56c-1.173,0.699-2.635,0.709-3.817,0.028
		l-27.178-15.691c-0.69-0.399-1.119-1.142-1.119-1.939v-5.491c0-0.782,0.417-1.518,1.089-1.92l46.59-27.902
		c0.365-0.218,0.401-0.571,0.4-0.713c-0.001-0.142-0.044-0.495-0.412-0.707l-17.083-9.863c-0.254-0.146-0.57-0.145-0.824,0
		l-16.916,9.766c-0.372,0.215-0.412,0.571-0.412,0.714s0.041,0.499,0.413,0.714l10.724,6.174l-5.987,3.716
		c-2.141,1.33-4.828,1.375-7.013,0.116l-9.448-5.441c-0.691-0.397-1.121-1.14-1.121-1.94v-6.671c0-0.797,0.429-1.54,1.119-1.939
		l27.168-15.685c1.163-0.671,2.607-0.671,3.77,0l27.348,15.79c0.69,0.399,1.119,1.142,1.119,1.939v6.5
		c0,0.782-0.417,1.518-1.089,1.92l-45.732,27.388c-0.365,0.218-0.401,0.572-0.401,0.714c0.001,0.142,0.044,0.495,0.412,0.707
		l15.218,8.787c0.738,0.426,1.653,0.419,2.385-0.017l34.337-20.485c0.709-0.423,1.149-1.198,1.149-2.023v-31.485
		c0-1.929-1.038-3.727-2.709-4.692l-31.357-18.105c-0.832-0.48-1.771-0.721-2.711-0.721c-0.895,0-1.789,0.218-2.592,0.656
		l-39.377,21.471c-1.742,0.95-2.825,2.773-2.825,4.757v47.064c0,1.929,1.038,3.727,2.709,4.692l39.555,22.837
		c1.658,0.958,3.725,0.964,5.391,0.016l52.803-30.072c1.689-0.961,2.737-2.765,2.737-4.708v-11.131l-11.817-6.822V327.485z"/>
	<path fill="none" d="M493.873,345.796l12.019,4.319c0.503,0.132,1.03,0.143,1.538,0.031l12.743-3.963
		c1.5-0.331,2.568-1.66,2.568-3.196v-4.837h-31.308v5.636C491.433,345.272,492.435,345.417,493.873,345.796z"/>
	<linearGradient id="SVGID_1_" gradientUnits="userSpaceOnUse" x1="90.5103" y1="320.5732" x2="213.3213" y2="320.5732">
		<stop  offset="0.2069" style="stop-color:#1CCBF5"/>
		<stop  offset="1" style="stop-color:#4384F7"/>
	</linearGradient>
	<path fill="url(#SVGID_1_)" d="M208.391,293.994l-4.878-2.829v22.548l-11.817-6.822v-16.995c0-3.524-1.896-6.808-4.948-8.57
		l-36.614-21.139c-2.966-1.714-6.678-1.757-9.685-0.118l-44.781,24.418c-3.182,1.735-5.158,5.064-5.158,8.688v53.307
		c0,3.524,1.895,6.808,4.947,8.57l44.869,25.905c1.525,0.88,3.236,1.32,4.948,1.32c1.692,0,3.385-0.43,4.897-1.291l58.152-33.119
		c3.083-1.755,4.998-5.05,4.998-8.599v-36.714C213.321,299.039,211.432,295.759,208.391,293.994z M203.514,336.169
		c0,1.943-1.049,3.747-2.737,4.708l-52.803,30.072c-1.666,0.948-3.733,0.942-5.391-0.016l-39.555-22.837
		c-1.671-0.965-2.709-2.763-2.709-4.692V296.34c0-1.985,1.082-3.807,2.825-4.757l39.377-21.471c0.803-0.438,1.698-0.656,2.592-0.656
		c0.939,0,1.879,0.241,2.711,0.721l31.357,18.105c1.671,0.964,2.709,2.762,2.709,4.692v31.485c0,0.825-0.44,1.601-1.149,2.023
		l-34.337,20.485c-0.732,0.436-1.646,0.443-2.385,0.017l-15.218-8.787c-0.368-0.212-0.411-0.565-0.412-0.707
		c-0.001-0.142,0.036-0.495,0.401-0.714l45.732-27.388c0.671-0.402,1.089-1.138,1.089-1.92v-6.5c0-0.797-0.429-1.54-1.119-1.939
		l-27.348-15.79c-1.163-0.671-2.607-0.671-3.77,0l-27.168,15.685c-0.69,0.399-1.119,1.142-1.119,1.939v6.671
		c0,0.799,0.43,1.542,1.121,1.94l9.448,5.441c2.186,1.259,4.872,1.214,7.013-0.116l5.987-3.716l-10.724-6.174
		c-0.372-0.215-0.413-0.571-0.413-0.714s0.04-0.499,0.412-0.714l16.916-9.766c0.254-0.145,0.57-0.146,0.824,0l17.083,9.863
		c0.368,0.213,0.411,0.566,0.412,0.707c0.001,0.142-0.035,0.495-0.4,0.713l-46.59,27.902c-0.671,0.402-1.089,1.138-1.089,1.92v5.491
		c0,0.797,0.429,1.54,1.119,1.939l27.178,15.691c1.182,0.682,2.644,0.671,3.817-0.028l41.166-24.56
		c2.055-1.226,3.332-3.475,3.332-5.868v-9.269l11.817,6.822V336.169z"/>
	<path fill="#2F3240" d="M464.927,349.751v3.328l18.501-4.888v-5.759l-16.047,4.149
		C465.936,346.956,464.927,348.259,464.927,349.751z"/>
	<path fill="#2F3240" d="M383.163,309.649l-27.855-13.438c-0.871-0.42-1.874-0.419-2.744,0.003l-28.503,13.814
		c-1.149,0.557-1.888,1.758-1.898,3.084l-0.035,4.741l4.476-2.17v6.042l51.887,0c1.808,0,3.273-1.534,3.273-3.427v-2.363
		l3.302,1.594v-4.767C385.067,311.424,384.324,310.209,383.163,309.649z M326.763,315.607l25.728-12.471
		c0.87-0.422,1.874-0.423,2.745-0.002l25.846,12.473L326.763,315.607z"/>
	<path fill="#2F3240" d="M274.513,324.859l-0.095-6.417l-1.436-3.923c-0.481-1.314-1.745-2.177-3.144-2.147l-3.76,0.081l2.429,6.633
		h-10.808l2.497-12.612c0.303-1.533,1.648-2.637,3.211-2.637h9.23v-5.773h-11.465c-2.997,0-5.611,2.035-6.346,4.941l-2.611,15.986
		v5.868l8.876,0v5.301h-3.438c-1.808,0-3.273,1.465-3.273,3.273v2.5h6.711v11.243l-6.42,1.832c-1.407,0.385-2.389,1.654-2.409,3.113
		l-0.048,3.548l20.422-5.698v-5.954l-5.773,1.58v-9.663h5.773v-5.773h-5.773v-5.301L274.513,324.859z"/>
	<path fill="#2F3240" d="M310.16,318.214h-16.468l1.008-3.866h15.654v-2.5c0-1.808-1.465-3.273-3.273-3.273h-10.876l1.236-4.738
		h12.913v-2.5c0-1.808-1.465-3.273-3.273-3.273h-8.135l0.573-2.199l-5.963-0.014l-0.577,2.213h-11.107v5.773h9.601l-1.236,4.738
		h-8.365v5.773h6.86l-1.008,3.866h-8.931v5.773h5.23l-7.076,9.025l0.186,9.12l4.738-6.043v5.081h5.749l-6.832,5.922l-0.114,7.62
		l11.781-10.136v10.216h5.773v-10.562l13.416,10.562l0.103-7.268l-8.072-6.354h5.137v-5.773h-10.583v-2.693h9.377l5.801,9.117
		v-9.396l-4.76-8.436h4.784v-2.5C313.432,319.679,311.967,318.214,310.16,318.214z M292.458,335.396h-10.041l2.112-2.693h7.93
		V335.396z M289.054,326.929l2.307-2.942h10.701l1.872,2.942H289.054z"/>
	<path fill="#2F3240" d="M450.584,297.516h-50.946c-1.907,0-3.454,1.546-3.454,3.454v50.89c0,1.907,1.546,3.453,3.453,3.453h2.706
		v-51.637h45.534v42.33l-13.368-11.91l9.632-25.329l-4.368,0.036c-1.35,0.011-2.554,0.85-3.033,2.112l-7.138,18.809l-7.143-6.364
		l5.537-14.592l-4.369,0.036c-1.35,0.011-2.554,0.849-3.033,2.111l-3.059,8.059l-11.476-10.225l0.013,7.785l9.25,8.272
		l-9.387,24.737l4.399-0.063c1.342-0.019,2.537-0.856,3.013-2.111l6.893-18.164l7.136,6.382l-5.296,13.957l4.369-0.063
		c1.341-0.019,2.535-0.855,3.012-2.109l2.816-7.403l16.125,14.421c1.121,0.914,2.658,1.041,3.926,0.304
		c1.103-0.641,1.709-1.892,1.709-3.168V300.97C454.038,299.063,452.492,297.516,450.584,297.516z"/>
	<path fill="#2F3240" d="M473.756,314.659l9.814-18.788l-4.468-0.014c-1.223-0.004-2.345,0.674-2.911,1.758l-10.631,20.352
		c-0.541,1.036,0.21,2.276,1.379,2.276h8.161l-9.546,18.056c-0.548,1.036,0.203,2.283,1.375,2.283h16.5v-5.583h-9.647l10.753-20.339
		H473.756z"/>
	<path fill="#2F3240" d="M528.526,312.519v-7.252c0-1.812-1.472-3.279-3.284-3.273l-28.841,0.1l4.959-6.242l-5.971,0.05
		c-1.082,0.009-2.09,0.552-2.692,1.452l-6.938,10.362l36.995-0.129v3.464l-16.966,6.39l-20.028-6.536v6.006l11.45,3.762
		l-11.548,4.349l0.098,6.005l19.924-7.57l22.828,7.5l0.005-3.719c0.002-1.418-0.91-2.676-2.257-3.115l-12.01-3.92l12.168-4.623
		C527.686,315.095,528.526,313.878,528.526,312.519z"/>
	<path fill="#2F3240" d="M485.66,346.598c0,1.46,0.966,2.743,2.369,3.146l17.655,6.226c0.546,0.157,1.123,0.169,1.675,0.035
		l18.653-5.679c1.468-0.356,2.501-1.67,2.501-3.181v-14.578H485.66V346.598z M491.433,338.149h31.308v4.837
		c0,1.536-1.068,2.866-2.568,3.196l-12.743,3.963c-0.508,0.112-1.035,0.101-1.538-0.031l-12.019-4.319
		c-1.438-0.378-2.44-0.524-2.44-2.01V338.149z"/>
	<path fill="#2F3240" d="M338.107,325.431v2.692c0,1.893,1.465,3.427,3.273,3.427l34.383,0l0,10.5c0,1.503-0.935,2.831-2.307,3.275
		l-18.424,5.958c-0.632,0.204-1.308,0.203-1.939-0.003l-18.239-5.951c-1.368-0.446-2.299-1.772-2.299-3.272l0-9.057h0v-4.141
		c0-1.893-1.465-3.427-3.273-3.427l-2.728,0l0,20.617c0,1.467,0.891,2.771,2.218,3.244l24.127,8.607
		c0.674,0.24,1.404,0.244,2.079,0.011l24.539-8.462c1.342-0.463,2.249-1.776,2.249-3.255l0-20.762L338.107,325.431z"/>
</g>
</svg>
