<?xml version="1.0" encoding="utf-8"?>
<!-- Generator: Adobe Illustrator 17.0.0, SVG Export Plug-In . SVG Version: 6.00 Build 0)  -->
<!DOCTYPE svg PUBLIC "-//W3C//DTD SVG 1.1//EN" "http://www.w3.org/Graphics/SVG/1.1/DTD/svg11.dtd">
<svg version="1.1" id="图层_1" xmlns="http://www.w3.org/2000/svg" xmlns:xlink="http://www.w3.org/1999/xlink" x="0px" y="0px"
	 width="612px" height="792px" viewBox="0 0 612 792" enable-background="new 0 0 612 792" xml:space="preserve">
<path fill="#FFFFFF" d="M585.44,264.877l-24.133-13.881v110.622l-58.469-33.469v-83.378c0-17.29-9.382-33.401-24.482-42.047
	L297.196,99.015c-14.676-8.408-33.043-8.621-47.921-0.58L27.705,218.232c-15.742,8.513-25.521,24.844-25.521,42.626v261.525
	c0,17.29,9.378,33.401,24.478,42.047l222.004,127.089c7.543,4.318,16.009,6.476,24.482,6.476c8.374,0,16.747-2.111,24.229-6.334
	l287.725-162.483c15.254-8.611,24.731-24.777,24.731-42.186V306.873C609.833,289.627,600.486,273.536,585.44,264.877z
	 M561.307,471.79c0,9.533-5.188,18.385-13.545,23.099l-261.26,147.534c-8.244,4.653-18.47,4.622-26.673-0.078L64.115,530.307
	c-8.268-4.734-13.405-13.556-13.405-23.021v-230.9c0-9.736,5.356-18.68,13.975-23.34l194.829-105.339
	c3.975-2.149,8.401-3.219,12.827-3.219c4.648,0,9.296,1.183,13.411,3.538l155.152,88.824c8.268,4.731,13.405,13.552,13.405,23.018
	v154.465c0,4.05-2.177,7.852-5.684,9.926L278.733,524.762c-3.619,2.138-8.145,2.172-11.798,0.081l-75.298-43.107
	c-1.822-1.04-2.034-2.772-2.04-3.467c-0.003-0.695,0.178-2.43,1.982-3.501L417.855,340.4c3.322-1.972,5.386-5.585,5.386-9.421
	v-31.89c0-3.911-2.122-7.557-5.537-9.513L282.39,212.111c-5.756-3.294-12.899-3.294-18.654,0L129.313,289.06
	c-3.414,1.955-5.537,5.602-5.537,9.513v32.73c0,3.921,2.126,7.568,5.547,9.516l46.745,26.691
	c10.814,6.175,24.106,5.954,34.701-0.569l29.622-18.233l-53.058-30.29c-1.842-1.054-2.044-2.803-2.044-3.504
	s0.198-2.447,2.037-3.501l83.695-47.913c1.258-0.712,2.82-0.718,4.077,0l84.526,48.387c1.822,1.044,2.034,2.776,2.037,3.47
	c0.007,0.695-0.174,2.427-1.979,3.497l-230.521,136.89c-3.322,1.972-5.386,5.585-5.386,9.421v26.939
	c0,3.911,2.122,7.557,5.537,9.513l134.47,76.98c5.848,3.345,13.08,3.294,18.883-0.136L486.349,457.97
	c10.168-6.015,16.488-17.046,16.488-28.789v-45.473l58.469,33.469L561.307,471.79L561.307,471.79z"/>
</svg>
