<?xml version="1.0" encoding="utf-8"?>
<!-- Generator: Adobe Illustrator 17.0.0, SVG Export Plug-In . SVG Version: 6.00 Build 0)  -->
<!DOCTYPE svg PUBLIC "-//W3C//DTD SVG 1.1//EN" "http://www.w3.org/Graphics/SVG/1.1/DTD/svg11.dtd">
<svg version="1.1" id="admui_logo" xmlns="http://www.w3.org/2000/svg" xmlns:xlink="http://www.w3.org/1999/xlink" x="0px" y="0px"
	 width="612px" height="792px" viewBox="0 0 612 792" enable-background="new 0 0 612 792" xml:space="preserve">
<g>
	<linearGradient id="SVGID_1_" gradientUnits="userSpaceOnUse" x1="3.3664" y1="394.6195" x2="157.1582" y2="394.6195">
		<stop  offset="0.2069" style="stop-color:#1CCBF5"/>
		<stop  offset="1" style="stop-color:#4384F7"/>
	</linearGradient>
	<path fill="url(#SVGID_1_)" d="M150.985,361.336l-6.108-3.543v28.236l-14.798-8.543v-21.282c0-4.413-2.374-8.526-6.196-10.732
		L78.032,319c-3.714-2.146-8.363-2.201-12.129-0.148L9.826,349.43c-3.984,2.173-6.459,6.341-6.459,10.88v66.754
		c0,4.413,2.374,8.526,6.195,10.732l56.188,32.439c1.909,1.102,4.052,1.653,6.196,1.653c2.119,0,4.239-0.539,6.132-1.617
		l72.821-41.474c3.861-2.198,6.259-6.324,6.259-10.768v-45.975C157.158,367.653,154.792,363.546,150.985,361.336z M144.877,414.15
		c0,2.433-1.313,4.693-3.428,5.896l-66.123,37.658c-2.086,1.188-4.675,1.18-6.751-0.02l-49.534-28.598
		c-2.092-1.208-3.393-3.46-3.393-5.876v-58.937c0-2.485,1.355-4.768,3.537-5.957l49.31-26.888c1.006-0.548,2.126-0.822,3.246-0.822
		c1.176,0,2.353,0.302,3.394,0.903l39.268,22.672c2.092,1.208,3.393,3.459,3.393,5.875v39.427c0,1.034-0.551,2.004-1.439,2.534
		l-42.999,25.653c-0.916,0.546-2.061,0.554-2.986,0.021l-19.057-11.003c-0.461-0.266-0.515-0.708-0.516-0.885
		c-0.001-0.177,0.045-0.62,0.502-0.894l57.269-34.297c0.841-0.503,1.363-1.426,1.363-2.405v-8.14c0-0.998-0.537-1.929-1.401-2.428
		l-34.247-19.773c-1.457-0.841-3.265-0.841-4.721,0l-34.021,19.641c-0.864,0.499-1.401,1.43-1.401,2.428v8.354
		c0,1.001,0.538,1.932,1.404,2.429l11.831,6.813c2.737,1.576,6.101,1.52,8.783-0.145l7.497-4.654l-13.429-7.732
		c-0.466-0.269-0.517-0.715-0.517-0.894c0-0.179,0.05-0.625,0.516-0.894l21.183-12.23c0.318-0.182,0.714-0.183,1.032,0
		l21.393,12.351c0.461,0.266,0.515,0.708,0.516,0.886c0.002,0.177-0.044,0.619-0.501,0.893l-58.343,34.941
		c-0.841,0.503-1.363,1.426-1.363,2.405v6.876c0,0.998,0.537,1.929,1.401,2.428l34.034,19.649c1.48,0.854,3.31,0.841,4.779-0.035
		l51.551-30.755c2.573-1.535,4.173-4.351,4.173-7.348v-11.607l14.798,8.543V414.15z"/>
	<path fill="#2F3240" d="M339.539,350.682l-43.733,21.195c-1.763,0.855-2.897,2.698-2.912,4.732l-0.053,7.274l6.868-3.329v9.271
		l79.612-0.001c2.773,0,5.022-2.354,5.022-5.259v-3.625l5.067,2.445v-7.314c0-2.052-1.14-3.917-2.921-4.776l-42.74-20.618
		C342.413,350.034,340.874,350.035,339.539,350.682z M299.952,380.437l39.475-19.135c1.335-0.647,2.875-0.649,4.211-0.004
		l39.657,19.138L299.952,380.437z"/>
	<path fill="#2F3240" d="M219.782,394.634l-0.146-9.845l-2.204-6.02c-0.738-2.017-2.677-3.341-4.824-3.294l-5.769,0.124
		l3.727,10.177h-16.583l3.832-19.352c0.466-2.352,2.529-4.046,4.926-4.046h14.162v-8.858h-17.591c-4.599,0-8.61,3.123-9.737,7.581
		l-4.007,24.529v9.004l13.619,0v8.134h-5.275c-2.773,0-5.022,2.248-5.022,5.022v3.836h10.297v17.251l-9.85,2.81
		c-2.158,0.591-3.665,2.538-3.696,4.776l-0.074,5.444l31.335-8.743v-9.136l-8.858,2.425v-14.827h8.858v-8.858h-8.858v-8.134
		L219.782,394.634z"/>
	<path fill="#2F3240" d="M511.944,437.933l28.387-7.499v-8.836l-24.622,6.367c-2.216,0.573-3.765,2.573-3.765,4.862V437.933z"/>
	<path fill="#2F3240" d="M250.756,378.506h24.019v-3.836c0-2.773-2.248-5.022-5.022-5.022h-16.688l1.896-7.27h19.814v-3.836
		c0-2.773-2.248-5.022-5.022-5.022h-12.482l0.88-3.374l-9.149-0.022l-0.885,3.395h-17.041v8.858h14.731l-1.896,7.27h-12.836v8.858
		h10.526l-1.547,5.932h-13.703v8.858h8.025l-10.856,13.847l0.286,13.992l7.27-9.272v7.795h8.821l-10.482,9.087l-0.175,11.691
		l18.076-15.553v15.676h8.858v-16.205l20.584,16.205l0.157-11.151l-12.385-9.749h7.881V410.8h-16.238v-4.132h14.388l8.901,13.988
		V406.24l-7.303-12.944h7.34v-3.836c0-2.773-2.248-5.022-5.022-5.022h-25.267L250.756,378.506z M247.316,410.8h-15.407l3.24-4.132
		h12.167V410.8z M264.925,397.81h-22.832l3.54-4.515h16.419L264.925,397.81z"/>
	<path fill="#2F3240" d="M489.937,352.681h-78.169c-2.927,0-5.299,2.372-5.299,5.299v78.082c0,2.926,2.372,5.298,5.298,5.298h4.152
		v-79.228h69.865v64.949l-20.511-18.274l14.778-38.863L473.35,370c-2.071,0.017-3.919,1.304-4.654,3.24l-10.952,28.859l-10.96-9.764
		l8.496-22.389L448.577,370c-2.071,0.017-3.919,1.303-4.654,3.24l-4.693,12.365l-17.608-15.688l0.02,11.944l14.192,12.692
		l-14.404,37.956l6.75-0.097c2.06-0.029,3.892-1.314,4.623-3.24l10.576-27.87l10.949,9.792l-8.126,21.415l6.703-0.096
		c2.058-0.03,3.89-1.312,4.622-3.236l4.32-11.359l24.741,22.126c1.719,1.403,4.078,1.598,6.025,0.466
		c1.692-0.984,2.622-2.903,2.622-4.861l0-77.568C495.236,355.053,492.863,352.681,489.937,352.681z"/>
	<path fill="#2F3240" d="M525.491,378.984l15.058-28.827l-6.856-0.022c-1.876-0.006-3.599,1.034-4.467,2.697l-16.312,31.227
		c-0.83,1.589,0.323,3.492,2.116,3.492h12.521l-14.648,27.705c-0.841,1.59,0.312,3.503,2.11,3.503h25.317v-8.567h-14.802
		l16.499-31.207H525.491z"/>
	<path fill="#2F3240" d="M609.526,364.572c0-2.78-2.259-5.031-5.039-5.022l-44.253,0.153l7.61-9.578l-9.161,0.077
		c-1.661,0.014-3.207,0.848-4.131,2.228l-10.646,15.899l56.762-0.197v5.315l-26.032,9.805l-30.73-10.029v9.215l17.568,5.772
		l-17.719,6.673l0.151,9.214l30.57-11.615l35.026,11.508l0.007-5.706c0.003-2.175-1.396-4.105-3.464-4.78l-18.428-6.014l18.67-7.094
		c1.949-0.741,3.238-2.609,3.238-4.694V364.572z"/>
	<path fill="#2F3240" d="M543.755,427.988c0,2.239,1.483,4.208,3.635,4.827l27.089,9.553c0.838,0.241,1.723,0.259,2.57,0.054
		l28.621-8.714c2.252-0.546,3.838-2.563,3.838-4.88v-22.368h-65.753V427.988z M552.613,415.026h48.037v7.421
		c0,2.357-1.639,4.397-3.941,4.904l-19.552,6.081c-0.779,0.172-1.588,0.155-2.359-0.048l-18.442-6.627
		c-2.206-0.581-3.743-0.804-3.743-3.085V415.026z"/>
	<path fill="#2F3240" d="M317.358,395.512v4.13c0,2.904,2.248,5.259,5.022,5.259l52.756-0.001l0,16.11
		c0,2.307-1.435,4.344-3.54,5.025l-28.269,9.142c-0.97,0.314-2.007,0.312-2.976-0.004l-27.985-9.131
		c-2.098-0.685-3.528-2.719-3.528-5.021l0-13.897h0v-6.353c0-2.904-2.248-5.259-5.022-5.258l-4.186,0l0,31.634
		c0,2.251,1.368,4.252,3.402,4.978l37.019,13.205c1.033,0.369,2.153,0.375,3.19,0.017l37.651-12.984
		c2.059-0.71,3.451-2.724,3.451-4.995l0-31.856L317.358,395.512z"/>
</g>
</svg>
