<?xml version="1.0" encoding="utf-8"?>
<!-- Generator: Adobe Illustrator 17.0.0, SVG Export Plug-In . SVG Version: 6.00 Build 0)  -->
<!DOCTYPE svg PUBLIC "-//W3C//DTD SVG 1.1//EN" "http://www.w3.org/Graphics/SVG/1.1/DTD/svg11.dtd">
<svg version="1.1" id="admui_logo" xmlns="http://www.w3.org/2000/svg" xmlns:xlink="http://www.w3.org/1999/xlink" x="0px" y="0px"
	 width="612px" height="792px" viewBox="0 0 612 792" enable-background="new 0 0 612 792" xml:space="preserve">
<g>
	<polygon fill="none" points="268.772,416.823 282.681,416.823 282.681,413.093 271.698,413.093 	"/>
	<path fill="none" d="M365.826,372.157l-35.633,17.267h75.231l-35.797-17.269C368.42,371.571,367.031,371.572,365.826,372.157z"/>
	<polygon fill="none" points="281.161,401.027 277.966,405.1 298.575,405.1 295.982,401.027 	"/>
	<path fill="none" d="M143.127,405.87c0,3.315-1.769,6.427-4.615,8.125l-57.015,34.004c-1.625,0.968-3.649,0.982-5.287,0.039
		L38.57,426.313c-0.956-0.552-1.55-1.581-1.55-2.685v-7.603c0-1.083,0.578-2.102,1.508-2.658l64.527-38.631
		c0.506-0.302,0.555-0.791,0.554-0.987c-0.001-0.197-0.061-0.685-0.571-0.979l-23.66-13.656c-0.352-0.202-0.789-0.201-1.141,0
		l-23.429,13.521c-0.515,0.298-0.571,0.791-0.571,0.989c0,0.198,0.057,0.691,0.572,0.989l14.853,8.548l-8.292,5.145
		c-2.965,1.841-6.687,1.904-9.713,0.161l-13.085-7.533c-0.957-0.55-1.553-1.578-1.553-2.686v-9.236c0-1.103,0.594-2.132,1.55-2.685
		l37.627-21.716c1.611-0.929,3.611-0.929,5.221,0l37.877,21.862c0.956,0.552,1.55,1.581,1.55,2.685v8.999
		c0,1.083-0.578,2.102-1.508,2.658l-63.338,37.92c-0.506,0.302-0.555,0.792-0.555,0.989c0.001,0.197,0.061,0.685,0.571,0.979
		l21.077,12.166c1.022,0.59,2.289,0.58,3.303-0.024l47.557-28.362c0.982-0.586,1.591-1.659,1.591-2.801v-43.592
		c0-2.671-1.438-5.16-3.752-6.496l-43.429-25.067c-1.152-0.665-2.453-0.998-3.755-0.998c-1.24,0-2.478,0.302-3.59,0.908
		l-54.537,29.727c-2.413,1.315-3.913,3.839-3.913,6.586v65.162c0,2.671,1.438,5.16,3.752,6.496l54.783,31.619
		c2.296,1.326,5.159,1.335,7.466,0.022l73.132-41.636c2.339-1.331,3.791-3.828,3.791-6.518v-15.411l-16.366-9.445v12.833H143.127z"
		/>
	<path fill="none" d="M561.639,431.222l16.646,5.98c0.697,0.183,1.427,0.198,2.13,0.043l17.649-5.487
		c2.078-0.458,3.557-2.298,3.557-4.425v-6.697h-43.361v7.803C558.259,430.497,559.647,430.698,561.639,431.222z"/>
	<path fill="#FFFFFF" d="M166.248,359.501l-6.756-3.917v31.219l-16.366-9.445v-23.53c0-4.879-2.626-9.426-6.853-11.866
		l-50.71-29.268c-4.108-2.373-9.249-2.433-13.414-0.163l-62.021,33.808c-4.407,2.402-7.144,7.011-7.144,12.029v73.806
		c0,4.879,2.625,9.426,6.852,11.866l62.143,35.866c2.112,1.218,4.482,1.828,6.853,1.828c2.343,0,4.688-0.595,6.782-1.787
		l80.54-45.855c4.27-2.43,6.922-6.992,6.922-11.906v-50.832C173.076,366.486,170.46,361.944,166.248,359.501z M159.494,417.894
		c0,2.69-1.453,5.188-3.791,6.518l-73.132,41.636c-2.307,1.313-5.17,1.304-7.467-0.022l-54.783-31.619
		c-2.314-1.336-3.752-3.825-3.752-6.496v-65.162c0-2.748,1.499-5.271,3.913-6.586l54.537-29.727c1.112-0.606,2.352-0.908,3.59-0.908
		c1.301,0,2.602,0.334,3.755,0.998l43.429,25.067c2.314,1.335,3.752,3.824,3.752,6.496v43.592c0,1.142-0.609,2.217-1.591,2.801
		l-47.557,28.362c-1.014,0.604-2.28,0.613-3.303,0.024l-21.077-12.166c-0.51-0.294-0.569-0.782-0.571-0.979
		c-0.001-0.197,0.05-0.685,0.555-0.989l63.338-37.92c0.929-0.557,1.508-1.576,1.508-2.658v-9c0-1.103-0.594-2.132-1.55-2.685
		L81.422,344.61c-1.611-0.929-3.611-0.929-5.221,0l-37.627,21.716c-0.956,0.552-1.55,1.581-1.55,2.685v9.236
		c0,1.106,0.596,2.135,1.553,2.686l13.085,7.533c3.028,1.743,6.748,1.681,9.713-0.161l8.292-5.145l-14.853-8.548
		c-0.515-0.298-0.572-0.791-0.572-0.989s0.055-0.691,0.571-0.989l23.429-13.521c0.352-0.201,0.789-0.202,1.141,0l23.66,13.656
		c0.51,0.295,0.569,0.784,0.571,0.979c0.001,0.197-0.048,0.685-0.554,0.987l-64.527,38.631c-0.929,0.557-1.508,1.576-1.508,2.658
		v7.603c0,1.103,0.594,2.132,1.55,2.685l37.641,21.725c1.637,0.944,3.662,0.929,5.287-0.039l57.015-34.004
		c2.846-1.697,4.615-4.811,4.615-8.124v-12.833l16.366,9.445v15.411H159.494z"/>
	<path fill="#FFFFFF" d="M521.549,436.698v4.608l25.624-6.768v-7.974l-22.225,5.744
		C522.946,432.829,521.549,434.633,521.549,436.698z"/>
	<g>
		<polygon fill="#FFFFFF" points="268.774,416.823 282.681,416.823 282.682,416.823 282.682,413.095 271.699,413.095 		"/>
		<path fill="#FFFFFF" d="M365.826,372.158l-35.633,17.267l75.231,0l-35.797-17.269
			C368.421,371.572,367.031,371.574,365.826,372.158z"/>
		<polygon fill="#FFFFFF" points="281.161,401.027 277.966,405.1 298.575,405.1 295.982,401.027 		"/>
		<path fill="#FFFFFF" d="M561.639,431.221l16.646,5.98c0.697,0.183,1.427,0.198,2.13,0.043l17.649-5.487
			c2.077-0.457,3.557-2.298,3.557-4.425v-6.697h-43.361v7.803C558.259,430.496,559.647,430.698,561.639,431.221z"/>
		<path fill="#FFFFFF" d="M408.306,381.176l-38.579-18.605c-1.206-0.582-2.595-0.58-3.8,0.004L326.45,381.7
			c-1.591,0.771-2.615,2.434-2.629,4.27l-0.048,6.564l6.199-3.004v8.365h71.863c2.504,0,4.533-2.124,4.533-4.745v-3.272l4.573,2.207
			v-6.6C410.943,383.633,409.914,381.951,408.306,381.176z M330.193,389.425l35.633-17.267c1.205-0.584,2.595-0.586,3.802-0.003
			l35.797,17.269L330.193,389.425z"/>
		<path fill="#FFFFFF" d="M257.827,402.234l-0.132-8.885l-1.989-5.432c-0.666-1.819-2.417-3.014-4.354-2.973l-5.208,0.112
			l3.364,9.184h-14.969l3.458-17.462c0.42-2.122,2.282-3.651,4.447-3.651h12.784v-7.993H239.35c-4.151,0-7.771,2.818-8.789,6.841
			l-3.616,22.133v8.124h12.293v7.339h-4.762c-2.504,0-4.533,2.028-4.533,4.532v3.461h9.295v15.566l-8.892,2.536
			c-1.949,0.533-3.309,2.29-3.336,4.31l-0.066,4.912l28.284-7.889v-8.244l-7.996,2.188v-13.379h7.996v-7.993h-7.996v-7.339
			L257.827,402.234z"/>
		<path fill="#FFFFFF" d="M307.198,393.034H284.39l1.396-5.353h21.681v-3.461c0-2.503-2.029-4.532-4.533-4.532H287.87l1.712-6.56
			h17.884v-3.461c0-2.503-2.029-4.532-4.533-4.532h-11.267l0.794-3.045l-8.259-0.019l-0.799,3.064h-15.383v7.993h13.297l-1.712,6.56
			h-11.586v7.993h9.501l-1.396,5.353h-12.369v7.993h7.244l-9.8,12.495l0.258,12.627l6.562-8.367v7.035h7.962l-9.462,8.199
			l-0.158,10.55l16.317-14.034v14.144h7.996v-14.624l18.581,14.624l0.143-10.063l-11.18-8.797h7.115v-7.993h-14.657v-3.729h12.987
			l8.034,12.623V412.71l-6.593-11.68h6.626v-3.461C311.729,395.062,309.7,393.034,307.198,393.034z M282.682,416.823h-0.001h-13.907
			l2.925-3.729h10.983V416.823z M277.966,405.1l3.195-4.073h14.821l2.593,4.073H277.966z"/>
		<path fill="#FFFFFF" d="M501.684,364.377h-70.56c-2.641,0-4.784,2.141-4.784,4.782v70.459c0,2.64,2.141,4.781,4.782,4.781h3.748
			v-71.493h63.064v58.607l-18.515-16.49l13.34-35.069l-6.05,0.05c-1.87,0.015-3.537,1.177-4.201,2.924l-9.886,26.042l-9.893-8.811
			l7.669-20.203l-6.051,0.05c-1.87,0.015-3.537,1.175-4.201,2.923l-4.237,11.158l-15.894-14.157l0.018,10.779l12.811,11.453
			l-13.001,34.249l6.093-0.087c1.859-0.026,3.514-1.185,4.173-2.923l9.547-25.149l9.883,8.836l-7.335,19.324l6.051-0.087
			c1.857-0.026,3.511-1.184,4.172-2.92l3.9-10.25l22.333,19.966c1.553,1.265,3.681,1.441,5.438,0.421
			c1.528-0.888,2.367-2.62,2.367-4.386v-69.997C506.468,366.519,504.326,364.377,501.684,364.377z"/>
		<path fill="#FFFFFF" d="M533.777,388.113v-0.001l13.592-26.013l-6.188-0.019c-1.694-0.005-3.248,0.933-4.032,2.434l-14.724,28.178
			c-0.749,1.434,0.291,3.151,1.91,3.151h11.303l-13.221,24.999c-0.759,1.434,0.281,3.161,1.904,3.161h22.852v-7.73h-13.361
			l14.893-28.16H533.777z"/>
		<path fill="#FFFFFF" d="M609.633,385.149v-10.041c0-2.509-2.039-4.54-4.548-4.532l-39.945,0.138l6.868-8.642l-8.27,0.069
			c-1.499,0.012-2.895,0.764-3.728,2.01l-9.609,14.347l51.238-0.179v4.796l-23.498,8.847l-27.739-9.049v8.316l15.858,5.209
			l-15.994,6.021l0.136,8.314l27.595-10.481l31.617,10.384l0.007-5.149c0.003-1.963-1.26-3.705-3.126-4.313l-16.634-5.427
			l16.853-6.401C608.47,388.716,609.633,387.031,609.633,385.149z"/>
		<path fill="#FFFFFF" d="M550.264,432.333c0,2.021,1.338,3.798,3.281,4.356l24.452,8.62c0.756,0.217,1.555,0.234,2.32,0.048
			l25.834-7.863c2.033-0.493,3.464-2.312,3.464-4.404v-20.184h-59.351V432.333z M558.259,420.635h43.361v6.697
			c0,2.127-1.479,3.968-3.557,4.425l-17.649,5.487c-0.704,0.155-1.433,0.14-2.13-0.043l-16.646-5.98
			c-1.992-0.523-3.379-0.726-3.379-2.783V420.635z"/>
		<path fill="#FFFFFF" d="M345.904,406.753c0,2.621,2.029,4.745,4.533,4.745h47.62v14.538c0,2.081-1.295,3.92-3.195,4.534
			l-25.517,8.249c-0.875,0.282-1.812,0.281-2.685-0.004l-25.261-8.239c-1.895-0.618-3.184-2.453-3.184-4.53v-12.54v-5.733
			c0-2.621-2.029-4.745-4.533-4.745h-3.778v28.545c0,2.031,1.234,3.837,3.072,4.491l33.416,11.917
			c0.933,0.332,1.945,0.338,2.879,0.015l33.986-11.716c1.859-0.641,3.115-2.459,3.115-4.507v-28.746l-60.467-0.001V406.753z"/>
	</g>
</g>
<g>
	<path fill="#FFFFFF" d="M165.532,359.082l-6.752-3.916v31.21l-16.357-9.443V353.41c0-4.878-2.624-9.423-6.849-11.862l-50.68-29.26
		c-4.105-2.372-9.243-2.432-13.406-0.163L9.506,345.923c-4.404,2.401-7.139,7.009-7.139,12.026v73.785
		c0,4.878,2.623,9.423,6.847,11.862l62.106,35.857c2.111,1.218,4.479,1.827,6.849,1.827c2.342,0,4.685-0.595,6.778-1.787
		l80.492-45.842c4.267-2.429,6.918-6.99,6.918-11.902V370.93C172.356,366.065,169.741,361.525,165.532,359.082z M158.782,417.459
		c0,2.689-1.452,5.186-3.788,6.517L81.906,465.6c-2.306,1.312-5.167,1.304-7.462-0.022l-54.75-31.61
		c-2.313-1.336-3.75-3.824-3.75-6.494v-65.144c0-2.748,1.498-5.27,3.91-6.584l54.504-29.719c1.111-0.606,2.35-0.908,3.588-0.908
		c1.3,0,2.601,0.334,3.752,0.998l43.403,25.06c2.313,1.334,3.75,3.823,3.75,6.494v43.58c0,1.142-0.609,2.216-1.59,2.8
		l-47.528,28.354c-1.013,0.603-2.278,0.613-3.301,0.024l-21.064-12.163c-0.509-0.293-0.569-0.782-0.57-0.979
		c-0.001-0.197,0.05-0.685,0.555-0.988l63.3-37.909c0.929-0.556,1.507-1.575,1.507-2.658v-8.997c0-1.103-0.594-2.132-1.549-2.684
		l-37.854-21.856c-1.61-0.929-3.608-0.929-5.218,0l-37.605,21.711c-0.955,0.552-1.549,1.581-1.549,2.684v9.234
		c0,1.106,0.595,2.134,1.552,2.685l13.078,7.531c3.026,1.743,6.744,1.68,9.707-0.161l8.287-5.144l-14.844-8.546
		c-0.515-0.298-0.572-0.79-0.572-0.988c0-0.198,0.055-0.691,0.57-0.988l23.414-13.518c0.352-0.201,0.789-0.202,1.141,0
		l23.646,13.652c0.509,0.295,0.569,0.783,0.57,0.979c0.001,0.197-0.048,0.685-0.554,0.987l-64.488,38.621
		c-0.929,0.556-1.507,1.575-1.507,2.658v7.6c0,1.103,0.594,2.132,1.549,2.684l37.619,21.719c1.636,0.944,3.66,0.929,5.283-0.039
		l56.98-33.995c2.844-1.697,4.612-4.81,4.612-8.122v-12.83l16.357,9.443v15.407H158.782z"/>
	<path fill="#FFFFFF" d="M520.619,436.258v4.607l25.608-6.766v-7.971l-22.212,5.743C522.015,432.39,520.619,434.193,520.619,436.258
		z"/>
	<path fill="#FFFFFF" d="M407.444,380.751l-38.556-18.6c-1.206-0.581-2.594-0.58-3.798,0.004l-39.453,19.121
		c-1.59,0.771-2.613,2.433-2.627,4.269l-0.048,6.562l6.196-3.004v8.363h71.82c2.503,0,4.53-2.123,4.53-4.744v-3.271l4.57,2.206
		v-6.598C410.08,383.208,409.051,381.526,407.444,380.751z M329.378,388.998l35.612-17.262c1.204-0.584,2.594-0.586,3.799-0.003
		l35.775,17.265L329.378,388.998z"/>
	<path fill="#FFFFFF" d="M257.056,401.804l-0.132-8.882l-1.988-5.43c-0.666-1.819-2.415-3.013-4.352-2.972l-5.204,0.112l3.362,9.181
		h-14.96l3.456-17.457c0.419-2.122,2.281-3.65,4.445-3.65h12.776v-7.991h-15.869c-4.148,0-7.766,2.817-8.784,6.839l-3.614,22.127
		v8.122h12.286v7.337h-4.759c-2.503,0-4.53,2.028-4.53,4.53v3.46h9.289v15.562l-8.886,2.536c-1.948,0.533-3.307,2.289-3.334,4.309
		l-0.066,4.911l28.267-7.887v-8.241l-7.991,2.187v-13.375h7.991v-7.991h-7.991v-7.337L257.056,401.804z"/>
	<path fill="#FFFFFF" d="M306.397,392.606h-22.794l1.395-5.351h21.668v-3.46c0-2.503-2.028-4.53-4.53-4.53h-15.054l1.711-6.558
		h17.874v-3.46c0-2.503-2.028-4.53-4.53-4.53h-11.26l0.793-3.044l-8.254-0.019l-0.799,3.063h-15.374v7.991h13.289l-1.711,6.558
		h-11.578v7.991h9.495l-1.395,5.351H262.98v7.991h7.239l-9.794,12.492l0.257,12.624l6.558-8.364v7.033h7.958l-9.457,8.197
		l-0.158,10.547l16.307-14.03v14.141h7.991v-14.62l18.57,14.62l0.143-10.06l-11.173-8.795h7.11v-7.991h-14.649v-3.728h12.979
		l8.029,12.619v-13.006l-6.589-11.677h6.622v-3.46C310.926,394.634,308.898,392.606,306.397,392.606z M281.894,416.389h-13.898
		l2.923-3.728h10.976v3.728H281.894z M277.183,404.669l3.193-4.072h14.812l2.591,4.072H277.183z"/>
	<path fill="#FFFFFF" d="M500.766,363.957h-70.517c-2.64,0-4.781,2.14-4.781,4.781v70.44c0,2.64,2.14,4.779,4.78,4.779h3.746
		v-71.474h63.026v58.591l-18.503-16.485l13.332-35.059l-6.046,0.05c-1.869,0.015-3.535,1.177-4.198,2.923l-9.88,26.035l-9.887-8.809
		l7.664-20.198l-6.047,0.05c-1.869,0.015-3.535,1.175-4.198,2.922l-4.234,11.155l-15.885-14.153l0.018,10.776l12.803,11.45
		l-12.993,34.24l6.089-0.087c1.858-0.026,3.512-1.185,4.17-2.922l9.541-25.142l9.877,8.834l-7.33,19.319l6.047-0.087
		c1.856-0.026,3.509-1.183,4.169-2.919l3.898-10.247l22.32,19.961c1.552,1.265,3.679,1.441,5.434,0.421
		c1.527-0.887,2.366-2.619,2.366-4.385v-69.977C505.547,366.098,503.407,363.957,500.766,363.957z"/>
	<path fill="#FFFFFF" d="M532.839,387.686l13.584-26.006l-6.184-0.019c-1.693-0.006-3.246,0.933-4.029,2.433l-14.715,28.17
		c-0.749,1.434,0.291,3.15,1.909,3.15H534.7l-13.213,24.992c-0.759,1.434,0.281,3.16,1.903,3.16h22.839v-7.728h-13.353
		l14.884-28.152h-14.92V387.686z"/>
	<path fill="#FFFFFF" d="M608.65,384.724v-10.038c0-2.508-2.037-4.539-4.546-4.53l-39.921,0.138l6.864-8.64l-8.265,0.069
		c-1.498,0.012-2.893,0.764-3.726,2.01l-9.603,14.343l51.207-0.179v4.795l-23.484,8.845l-27.722-9.047v8.313l15.849,5.207
		l-15.984,6.02l0.136,8.312l27.578-10.478l31.598,10.381l0.007-5.148c0.003-1.963-1.26-3.704-3.124-4.312l-16.624-5.426
		l16.842-6.399C607.487,388.289,608.65,386.605,608.65,384.724z"/>
	<path fill="#FFFFFF" d="M549.316,431.894c0,2.021,1.337,3.797,3.279,4.355l24.437,8.618c0.756,0.217,1.554,0.234,2.318,0.048
		l25.819-7.861c2.032-0.493,3.462-2.312,3.462-4.403v-20.178h-59.315V431.894z M557.307,420.199h43.335v6.695
		c0,2.126-1.478,3.967-3.555,4.424l-17.638,5.485c-0.703,0.155-1.433,0.14-2.129-0.043l-16.636-5.978
		c-1.99-0.523-3.377-0.725-3.377-2.782V420.199z"/>
	<path fill="#FFFFFF" d="M345.08,402.596v3.726c0,2.62,2.028,4.743,4.53,4.743h47.591v14.534c0,2.08-1.294,3.919-3.193,4.533
		l-25.502,8.247c-0.875,0.282-1.81,0.281-2.684-0.004l-25.246-8.237c-1.894-0.617-3.182-2.453-3.182-4.529v-12.536l0,0v-5.732
		c0-2.62-2.028-4.744-4.53-4.744h-3.776v28.537c0,2.031,1.233,3.836,3.07,4.49l33.396,11.913c0.933,0.332,1.943,0.338,2.878,0.015
		l33.966-11.713c1.858-0.641,3.113-2.458,3.113-4.505v-28.738L345.08,402.596z"/>
</g>
</svg>
