<?xml version="1.0" encoding="utf-8"?>
<!-- Generator: Adobe Illustrator 17.0.0, SVG Export Plug-In . SVG Version: 6.00 Build 0)  -->
<!DOCTYPE svg PUBLIC "-//W3C//DTD SVG 1.1//EN" "http://www.w3.org/Graphics/SVG/1.1/DTD/svg11.dtd">
<svg version="1.1" id="admui_logo" xmlns="http://www.w3.org/2000/svg" xmlns:xlink="http://www.w3.org/1999/xlink" x="0px" y="0px"
	 width="612px" height="181px" viewBox="0 0 612 181" enable-background="new 0 0 612 181" xml:space="preserve">
<g>
	<path fill="#FFFFFF" d="M165.532,52.825l-6.752-3.916v31.21l-16.357-9.443V47.153c0-4.878-2.624-9.423-6.849-11.862l-50.68-29.26
		c-4.105-2.372-9.243-2.432-13.406-0.163L9.506,39.666c-4.404,2.401-7.139,7.009-7.139,12.026v73.785
		c0,4.878,2.623,9.423,6.847,11.862l62.106,35.857c2.111,1.218,4.479,1.827,6.849,1.827c2.342,0,4.685-0.595,6.778-1.787
		l80.492-45.842c4.267-2.429,6.918-6.99,6.918-11.902V64.673C172.356,59.808,169.741,55.268,165.532,52.825z M158.782,111.202
		c0,2.689-1.452,5.186-3.788,6.517l-73.088,41.624c-2.306,1.312-5.167,1.304-7.462-0.022l-54.75-31.61
		c-2.313-1.336-3.75-3.824-3.75-6.494V56.073c0-2.748,1.498-5.27,3.91-6.584L74.358,19.77c1.111-0.606,2.35-0.908,3.588-0.908
		c1.3,0,2.601,0.334,3.752,0.998l43.403,25.06c2.313,1.334,3.75,3.823,3.75,6.494v43.58c0,1.142-0.609,2.216-1.59,2.8
		l-47.528,28.354c-1.013,0.603-2.278,0.613-3.301,0.024l-21.064-12.163c-0.509-0.293-0.569-0.782-0.57-0.979s0.05-0.685,0.555-0.988
		l63.3-37.909c0.929-0.556,1.507-1.575,1.507-2.658v-8.997c0-1.103-0.594-2.132-1.549-2.684L80.757,37.938
		c-1.61-0.929-3.608-0.929-5.218,0L37.934,59.649c-0.955,0.552-1.549,1.581-1.549,2.684v9.234c0,1.106,0.595,2.134,1.552,2.685
		l13.078,7.531c3.026,1.743,6.744,1.68,9.707-0.161l8.287-5.144l-14.844-8.546c-0.515-0.298-0.572-0.79-0.572-0.988
		s0.055-0.691,0.57-0.988l23.414-13.518c0.352-0.201,0.789-0.202,1.141,0l23.646,13.652c0.509,0.295,0.569,0.783,0.57,0.979
		c0.001,0.197-0.048,0.685-0.554,0.987l-64.488,38.621c-0.929,0.556-1.507,1.575-1.507,2.658v7.6c0,1.103,0.594,2.132,1.549,2.684
		l37.619,21.719c1.636,0.944,3.66,0.929,5.283-0.039l56.98-33.995c2.844-1.697,4.612-4.81,4.612-8.122v-12.83l16.357,9.443v15.407
		L158.782,111.202L158.782,111.202z"/>
	<path fill="#FFFFFF" d="M520.619,130.001v4.607l25.608-6.766v-7.971l-22.212,5.743
		C522.015,126.133,520.619,127.936,520.619,130.001z"/>
	<path fill="#FFFFFF" d="M407.444,74.494l-38.556-18.6c-1.206-0.581-2.594-0.58-3.798,0.004l-39.453,19.121
		c-1.59,0.771-2.613,2.433-2.627,4.269l-0.048,6.562l6.196-3.004v8.363h71.82c2.503,0,4.53-2.123,4.53-4.744v-3.271l4.57,2.206
		v-6.598C410.08,76.951,409.051,75.269,407.444,74.494z M329.378,82.741l35.612-17.262c1.204-0.584,2.594-0.586,3.799-0.003
		l35.775,17.265H329.378z"/>
	<path fill="#FFFFFF" d="M257.056,95.547l-0.132-8.882l-1.988-5.43c-0.666-1.819-2.415-3.013-4.352-2.972l-5.204,0.112l3.362,9.181
		h-14.96l3.456-17.457c0.419-2.122,2.281-3.65,4.445-3.65h12.776v-7.991H238.59c-4.148,0-7.766,2.817-8.784,6.839l-3.614,22.127
		v8.122h12.286v7.337h-4.759c-2.503,0-4.53,2.028-4.53,4.53v3.46h9.289v15.562l-8.886,2.536c-1.948,0.533-3.307,2.289-3.334,4.309
		l-0.066,4.911l28.267-7.887v-8.241l-7.991,2.187v-13.375h7.991v-7.991h-7.991v-7.337L257.056,95.547z"/>
	<path fill="#FFFFFF" d="M306.397,86.349h-22.794l1.395-5.351h21.668v-3.46c0-2.503-2.028-4.53-4.53-4.53h-15.054l1.711-6.558
		h17.874v-3.46c0-2.503-2.028-4.53-4.53-4.53h-11.26l0.793-3.044l-8.254-0.019l-0.799,3.063h-15.374v7.991h13.289l-1.711,6.558
		h-11.578V81h9.495l-1.395,5.351H262.98v7.991h7.239l-9.794,12.492l0.257,12.624l6.558-8.364v7.033h7.958l-9.457,8.197
		l-0.158,10.547l16.307-14.03v14.141h7.991v-14.62l18.57,14.62l0.143-10.06l-11.173-8.795h7.11v-7.991h-14.649v-3.728h12.979
		l8.029,12.619v-13.006l-6.589-11.677h6.622v-3.46C310.926,88.377,308.898,86.349,306.397,86.349z M281.894,110.132h-13.898
		l2.923-3.728h10.976v3.728H281.894z M277.183,98.412l3.193-4.072h14.812l2.591,4.072H277.183z"/>
	<path fill="#FFFFFF" d="M500.766,57.7h-70.517c-2.64,0-4.781,2.14-4.781,4.781v70.44c0,2.64,2.14,4.779,4.78,4.779h3.746V66.226
		h63.026v58.591l-18.503-16.485l13.332-35.059l-6.046,0.05c-1.869,0.015-3.535,1.177-4.198,2.923l-9.88,26.035l-9.887-8.809
		l7.664-20.198l-6.047,0.05c-1.869,0.015-3.535,1.175-4.198,2.922l-4.234,11.155l-15.885-14.153l0.018,10.776l12.803,11.45
		l-12.993,34.24l6.089-0.087c1.858-0.026,3.512-1.185,4.17-2.922l9.541-25.142l9.877,8.834l-7.33,19.319l6.047-0.087
		c1.856-0.026,3.509-1.183,4.169-2.919l3.898-10.247l22.32,19.961c1.552,1.265,3.679,1.441,5.434,0.421
		c1.527-0.887,2.366-2.619,2.366-4.385V62.483C505.547,59.841,503.407,57.7,500.766,57.7z"/>
	<path fill="#FFFFFF" d="M532.839,81.429l13.584-26.006l-6.184-0.019c-1.693-0.006-3.246,0.933-4.029,2.433l-14.715,28.17
		c-0.749,1.434,0.291,3.15,1.909,3.15H534.7l-13.213,24.992c-0.759,1.434,0.281,3.16,1.903,3.16h22.839v-7.728h-13.353
		l14.884-28.152H532.839L532.839,81.429L532.839,81.429z"/>
	<path fill="#FFFFFF" d="M608.65,78.467V68.429c0-2.508-2.037-4.539-4.546-4.53l-39.921,0.138l6.864-8.64l-8.265,0.069
		c-1.498,0.012-2.893,0.764-3.726,2.01l-9.603,14.343l51.207-0.179v4.795l-23.484,8.845l-27.722-9.047v8.313l15.849,5.207
		l-15.984,6.02l0.136,8.312l27.578-10.478l31.598,10.381l0.007-5.148c0.003-1.963-1.26-3.704-3.124-4.312l-16.624-5.426
		l16.842-6.399C607.487,82.032,608.65,80.348,608.65,78.467z"/>
	<path fill="#FFFFFF" d="M549.316,125.637c0,2.021,1.337,3.797,3.279,4.355l24.437,8.618c0.756,0.217,1.554,0.234,2.318,0.048
		l25.819-7.861c2.032-0.493,3.462-2.312,3.462-4.403v-20.178h-59.315L549.316,125.637L549.316,125.637z M557.307,113.942h43.335
		v6.695c0,2.126-1.478,3.967-3.555,4.424l-17.638,5.485c-0.703,0.155-1.433,0.14-2.129-0.043l-16.636-5.978
		c-1.99-0.523-3.377-0.725-3.377-2.782V113.942z"/>
	<path fill="#FFFFFF" d="M345.08,96.339v3.726c0,2.62,2.028,4.743,4.53,4.743h47.591v14.534c0,2.08-1.294,3.919-3.193,4.533
		l-25.502,8.247c-0.875,0.282-1.81,0.281-2.684-0.004l-25.246-8.237c-1.894-0.617-3.182-2.453-3.182-4.529v-12.536l0,0v-5.732
		c0-2.62-2.028-4.744-4.53-4.744h-3.776v28.537c0,2.031,1.233,3.836,3.07,4.49l33.396,11.913c0.933,0.332,1.943,0.338,2.878,0.015
		l33.966-11.713c1.858-0.641,3.113-2.458,3.113-4.505V96.339H345.08z"/>
</g>
</svg>
